<?xml version="1.0" encoding="utf-8"?>
<!-- Generator: Adobe Illustrator 25.2.1, SVG Export Plug-In . SVG Version: 6.00 Build 0)  -->
<svg version="1.1" xmlns="http://www.w3.org/2000/svg" xmlns:xlink="http://www.w3.org/1999/xlink" x="0px" y="0px" width="494.5px"
	 height="399.1px" viewBox="0 0 494.5 399.1" style="enable-background:new 0 0 494.5 399.1;" xml:space="preserve">
<g id="Layer_1">
</g>
<g id="Layer_3">
	<g>
		<defs>
			<rect id="SVGID_7_" x="10" y="0.3" width="476.9" height="398.5"/>
		</defs>
		<clipPath id="SVGID_2_">
			<use xlink:href="#SVGID_7_"  style="overflow:visible;"/>
		</clipPath>
		<rect x="10" y="0.3" style="clip-path:url(#SVGID_2_);fill:#EABEB5;" width="476.9" height="398.5"/>
		<path style="clip-path:url(#SVGID_2_);fill:none;stroke:#8BB9FF;stroke-width:4;stroke-miterlimit:10;" d="M10,295.2
			c20.2,7.4,43.4,19.1,69.1,37.2c101.3,71.4,103.2,20.6,140.8,28.9"/>
		<path style="clip-path:url(#SVGID_2_);fill:none;stroke:#8BB9FF;stroke-width:4;stroke-miterlimit:10;" d="M113.5,299.8
			C79.8,301.1,71.1,327,71.1,327"/>
		<path style="clip-path:url(#SVGID_2_);fill:none;stroke:#8BB9FF;stroke-width:4;stroke-miterlimit:10;" d="M240.5,92.2
			c0,0-50.5,44.4-168.4,5C45.4,88.2,25.4,83.9,10,82.5"/>
		<path style="clip-path:url(#SVGID_2_);fill:none;stroke:#8BB9FF;stroke-width:4;stroke-miterlimit:10;" d="M10,155.3
			c12.6-6.4,26.6-12.8,38.8-17c31.8-10.9,32.6-38.2,32.6-38.2"/>
		<path style="clip-path:url(#SVGID_2_);fill:none;stroke:#8BB9FF;stroke-width:4;stroke-miterlimit:10;" d="M558.6,221.5
			c0,0-36.6,56.4-160.8,50.2s-98.3,37.7-134.5,50.7"/>
		<path style="clip-path:url(#SVGID_2_);fill:none;stroke:#8BB9FF;stroke-width:4;stroke-miterlimit:10;" d="M323.3,374.1
			c0,0,35.4-37.4,63.1-56.5c27.7-19.1,21.1-45.6,21.1-45.6"/>
		<path style="clip-path:url(#SVGID_2_);fill:none;stroke:#8BB9FF;stroke-width:4;stroke-miterlimit:10;" d="M485.9,81.1
			c-91.1-24.5-82.7,17.6-118.2,20.1"/>
		<path style="clip-path:url(#SVGID_2_);fill:none;stroke:#FF848F;stroke-width:11;stroke-linecap:round;stroke-miterlimit:10;" d="
			M432.6,125c-30.9,28.4-46.9,47.8-171.6,71.3c-90.8,17.1-153.1,32.8-206.5,66.5"/>
		
			<line style="clip-path:url(#SVGID_2_);fill:none;stroke:#FF848F;stroke-width:11;stroke-linecap:round;stroke-miterlimit:10;" x1="367.7" y1="131" x2="414.6" y2="181.1"/>
		
			<line style="clip-path:url(#SVGID_2_);fill:none;stroke:#FF848F;stroke-width:11;stroke-linecap:round;stroke-miterlimit:10;" x1="308.8" y1="159.6" x2="325.8" y2="209.5"/>
		
			<line style="clip-path:url(#SVGID_2_);fill:none;stroke:#FF848F;stroke-width:11;stroke-linecap:round;stroke-miterlimit:10;" x1="246.8" y1="167.4" x2="273.8" y2="215.3"/>
		
			<line style="clip-path:url(#SVGID_2_);fill:none;stroke:#FF848F;stroke-width:11;stroke-linecap:round;stroke-miterlimit:10;" x1="193.4" y1="173.8" x2="210.7" y2="231"/>
		
			<line style="clip-path:url(#SVGID_2_);fill:none;stroke:#FF848F;stroke-width:11;stroke-linecap:round;stroke-miterlimit:10;" x1="142.2" y1="184.5" x2="176.1" y2="243.2"/>
		
			<line style="clip-path:url(#SVGID_2_);fill:none;stroke:#FF848F;stroke-width:11;stroke-linecap:round;stroke-miterlimit:10;" x1="89.4" y1="203.3" x2="117.3" y2="265.1"/>
	</g>
	<g>
		<rect x="10" y="0.3" style="fill:none;" width="476.9" height="398.5"/>
	</g>
	<g>
		<path d="M61.9,40.7h-2.1V30.6h2.1V40.7z"/>
		<path d="M69.8,33.7c0.5,0.4,0.7,1.1,0.7,2v5h-2v-4.5c0-0.4-0.1-0.7-0.2-0.9c-0.2-0.4-0.6-0.6-1.1-0.6c-0.7,0-1.1,0.3-1.4,0.8
			c-0.1,0.3-0.2,0.7-0.2,1.1v4h-1.9v-7.4h1.9v1.1c0.2-0.4,0.5-0.7,0.7-0.8c0.4-0.3,0.9-0.5,1.5-0.5C68.7,33.1,69.3,33.3,69.8,33.7z"
			/>
		<path d="M79.3,30.5c0.1,0,0.2,0,0.4,0v1.6c-0.1,0-0.3,0-0.6,0c-0.3,0-0.4,0-0.5,0.2c-0.1,0.1-0.1,0.3-0.1,0.4s0,0.4,0,0.6h1.3v1.4
			h-1.3v6h-1.9v-6h-1.1v-1.4h1.1v-0.5c0-0.8,0.1-1.3,0.4-1.6c0.3-0.4,1-0.7,2-0.7C79.1,30.5,79.2,30.5,79.3,30.5z"/>
		<path d="M83.8,36.2c0.4,0,0.6-0.1,0.8-0.2c0.3-0.1,0.4-0.3,0.4-0.6c0-0.3-0.1-0.5-0.3-0.6c-0.2-0.1-0.5-0.2-0.9-0.2
			c-0.5,0-0.8,0.1-1,0.3c-0.1,0.2-0.2,0.4-0.3,0.7h-1.9c0-0.7,0.2-1.2,0.5-1.6c0.5-0.7,1.4-1,2.7-1c0.8,0,1.5,0.2,2.2,0.5
			c0.6,0.3,1,0.9,1,1.8v3.4c0,0.2,0,0.5,0,0.9c0,0.3,0.1,0.4,0.1,0.5c0.1,0.1,0.2,0.2,0.3,0.2v0.3h-2.1c-0.1-0.2-0.1-0.3-0.1-0.4
			c0-0.1,0-0.3-0.1-0.5c-0.3,0.3-0.6,0.5-0.9,0.7c-0.4,0.2-0.9,0.4-1.4,0.4c-0.7,0-1.2-0.2-1.7-0.6c-0.4-0.4-0.7-0.9-0.7-1.6
			c0-0.9,0.4-1.6,1.1-2c0.4-0.2,1-0.4,1.7-0.5L83.8,36.2z M85,37.1c-0.1,0.1-0.3,0.1-0.4,0.2c-0.1,0-0.3,0.1-0.5,0.1l-0.4,0.1
			c-0.4,0.1-0.7,0.2-0.9,0.3c-0.3,0.2-0.5,0.5-0.5,0.8c0,0.3,0.1,0.6,0.3,0.7c0.2,0.1,0.4,0.2,0.7,0.2c0.4,0,0.8-0.1,1.2-0.4
			c0.4-0.2,0.5-0.7,0.6-1.3V37.1z"/>
		<path d="M93.1,35.9c0-0.3-0.1-0.5-0.3-0.8c-0.2-0.3-0.6-0.5-1-0.5c-0.7,0-1.1,0.3-1.4,1c-0.1,0.3-0.2,0.8-0.2,1.4
			c0,0.5,0.1,1,0.2,1.3c0.2,0.6,0.7,0.9,1.3,0.9c0.5,0,0.8-0.1,1-0.4c0.2-0.2,0.3-0.6,0.3-1h2c0,0.6-0.3,1.2-0.6,1.7
			c-0.6,0.9-1.5,1.3-2.7,1.3c-1.2,0-2.1-0.4-2.6-1.1c-0.6-0.7-0.8-1.6-0.8-2.8c0-1.3,0.3-2.3,0.9-3s1.5-1.1,2.6-1.1
			c0.9,0,1.7,0.2,2.3,0.6c0.6,0.4,0.9,1.2,1.1,2.2H93.1z"/>
		<path d="M95.7,34.7v-1.4h1v-2.1h1.9v2.1h1.2v1.4h-1.2v3.9c0,0.3,0,0.5,0.1,0.6c0.1,0.1,0.3,0.1,0.7,0.1c0.1,0,0.1,0,0.2,0
			c0.1,0,0.1,0,0.2,0v1.5l-0.9,0c-0.9,0-1.5-0.1-1.9-0.5c-0.2-0.2-0.3-0.6-0.3-1v-4.6H95.7z"/>
		<path d="M101,42.3c0.4-0.1,0.7-0.3,0.9-0.5s0.3-0.6,0.3-1.1H101v-2h2.1v1.8c0,0.3,0,0.6-0.1,1s-0.2,0.6-0.5,0.9
			c-0.2,0.3-0.5,0.5-0.9,0.6c-0.3,0.1-0.5,0.2-0.7,0.2V42.3z"/>
		<path d="M114.2,33.3c0.4,0.2,0.7,0.4,0.9,0.7c0.2,0.3,0.3,0.6,0.4,0.9c0,0.3,0.1,0.8,0.1,1.4v4.4h-2v-4.5c0-0.4-0.1-0.7-0.2-1
			c-0.2-0.3-0.5-0.5-1-0.5c-0.5,0-0.9,0.2-1.2,0.5s-0.4,0.8-0.4,1.5v4h-1.9v-10h1.9v3.6c0.3-0.4,0.6-0.7,1-0.9
			c0.4-0.2,0.8-0.3,1.2-0.3C113.4,33,113.9,33.1,114.2,33.3z"/>
		<path d="M122.3,33.4c0.5,0.2,0.9,0.6,1.3,1.1c0.3,0.4,0.5,1,0.6,1.5c0.1,0.3,0.1,0.8,0.1,1.5h-5.4c0,0.7,0.3,1.3,0.8,1.6
			c0.3,0.2,0.7,0.3,1.1,0.3c0.4,0,0.8-0.1,1.1-0.3c0.2-0.1,0.3-0.3,0.4-0.5h2c-0.1,0.4-0.3,0.9-0.7,1.3c-0.7,0.7-1.6,1.1-2.8,1.1
			c-1,0-1.9-0.3-2.6-0.9s-1.1-1.6-1.1-3c0-1.3,0.3-2.3,1-3s1.6-1,2.7-1C121.2,33,121.8,33.2,122.3,33.4z M119.4,35.1
			c-0.3,0.3-0.4,0.7-0.5,1.2h3.4c0-0.5-0.2-0.9-0.5-1.2c-0.3-0.3-0.7-0.4-1.2-0.4C120,34.7,119.6,34.8,119.4,35.1z"/>
		<path d="M134.5,33.3c0.4,0.2,0.7,0.4,0.9,0.7c0.2,0.3,0.3,0.6,0.4,0.9c0,0.3,0.1,0.8,0.1,1.4v4.4h-2v-4.5c0-0.4-0.1-0.7-0.2-1
			c-0.2-0.3-0.5-0.5-1-0.5c-0.5,0-0.9,0.2-1.2,0.5s-0.4,0.8-0.4,1.5v4h-1.9v-10h1.9v3.6c0.3-0.4,0.6-0.7,1-0.9
			c0.4-0.2,0.8-0.3,1.2-0.3C133.7,33,134.1,33.1,134.5,33.3z"/>
		<path d="M140.6,36.2c0.4,0,0.6-0.1,0.8-0.2c0.3-0.1,0.4-0.3,0.4-0.6c0-0.3-0.1-0.5-0.3-0.6c-0.2-0.1-0.5-0.2-0.9-0.2
			c-0.5,0-0.8,0.1-1,0.3c-0.1,0.2-0.2,0.4-0.3,0.7h-1.9c0-0.7,0.2-1.2,0.5-1.6c0.5-0.7,1.4-1,2.7-1c0.8,0,1.5,0.2,2.2,0.5
			c0.6,0.3,1,0.9,1,1.8v3.4c0,0.2,0,0.5,0,0.9c0,0.3,0.1,0.4,0.1,0.5c0.1,0.1,0.2,0.2,0.3,0.2v0.3H142c-0.1-0.2-0.1-0.3-0.1-0.4
			c0-0.1,0-0.3-0.1-0.5c-0.3,0.3-0.6,0.5-0.9,0.7c-0.4,0.2-0.9,0.4-1.4,0.4c-0.7,0-1.2-0.2-1.7-0.6c-0.4-0.4-0.7-0.9-0.7-1.6
			c0-0.9,0.4-1.6,1.1-2c0.4-0.2,1-0.4,1.7-0.5L140.6,36.2z M141.8,37.1c-0.1,0.1-0.3,0.1-0.4,0.2c-0.1,0-0.3,0.1-0.5,0.1l-0.4,0.1
			c-0.4,0.1-0.7,0.2-0.9,0.3c-0.3,0.2-0.5,0.5-0.5,0.8c0,0.3,0.1,0.6,0.3,0.7c0.2,0.1,0.4,0.2,0.7,0.2c0.4,0,0.8-0.1,1.2-0.4
			c0.4-0.2,0.5-0.7,0.6-1.3V37.1z"/>
		<path d="M147,38.3c0,0.3,0.1,0.6,0.3,0.7c0.2,0.3,0.7,0.4,1.3,0.4c0.4,0,0.7-0.1,0.9-0.2s0.3-0.3,0.3-0.5c0-0.2-0.1-0.4-0.3-0.5
			s-0.9-0.3-2-0.6c-0.8-0.2-1.4-0.5-1.8-0.8c-0.3-0.3-0.5-0.8-0.5-1.3c0-0.7,0.3-1.3,0.8-1.8c0.5-0.5,1.3-0.7,2.3-0.7
			c0.9,0,1.7,0.2,2.3,0.6c0.6,0.4,0.9,1,1,1.9h-1.9c0-0.3-0.1-0.4-0.2-0.6c-0.2-0.3-0.6-0.4-1.1-0.4c-0.4,0-0.7,0.1-0.9,0.2
			s-0.3,0.3-0.3,0.5c0,0.2,0.1,0.4,0.3,0.5c0.2,0.1,0.9,0.3,2,0.5c0.8,0.2,1.4,0.5,1.7,0.8c0.4,0.4,0.6,0.8,0.6,1.4
			c0,0.7-0.3,1.3-0.8,1.8c-0.6,0.5-1.4,0.7-2.6,0.7c-1.2,0-2-0.2-2.6-0.7c-0.6-0.5-0.8-1.1-0.8-1.9H147z"/>
		<path d="M158.6,38.3c0,0.3,0.1,0.6,0.3,0.7c0.2,0.3,0.7,0.4,1.3,0.4c0.4,0,0.7-0.1,0.9-0.2s0.3-0.3,0.3-0.5c0-0.2-0.1-0.4-0.3-0.5
			s-0.9-0.3-2-0.6c-0.8-0.2-1.4-0.5-1.8-0.8c-0.3-0.3-0.5-0.8-0.5-1.3c0-0.7,0.3-1.3,0.8-1.8c0.5-0.5,1.3-0.7,2.3-0.7
			c0.9,0,1.7,0.2,2.3,0.6c0.6,0.4,0.9,1,1,1.9h-1.9c0-0.3-0.1-0.4-0.2-0.6c-0.2-0.3-0.6-0.4-1.1-0.4c-0.4,0-0.7,0.1-0.9,0.2
			s-0.3,0.3-0.3,0.5c0,0.2,0.1,0.4,0.3,0.5c0.2,0.1,0.9,0.3,2,0.5c0.8,0.2,1.4,0.5,1.7,0.8c0.4,0.4,0.6,0.8,0.6,1.4
			c0,0.7-0.3,1.3-0.8,1.8c-0.6,0.5-1.4,0.7-2.6,0.7c-1.2,0-2-0.2-2.6-0.7c-0.6-0.5-0.8-1.1-0.8-1.9H158.6z"/>
		<path d="M164.1,34.7v-1.4h1v-2.1h1.9v2.1h1.2v1.4h-1.2v3.9c0,0.3,0,0.5,0.1,0.6c0.1,0.1,0.3,0.1,0.7,0.1c0.1,0,0.1,0,0.2,0
			c0.1,0,0.1,0,0.2,0v1.5l-0.9,0c-0.9,0-1.5-0.1-1.9-0.5c-0.2-0.2-0.3-0.6-0.3-1v-4.6H164.1z"/>
		<path d="M171.6,32.4h-2v-1.8h2V32.4z M169.6,33.2h2v7.5h-2V33.2z"/>
		<path d="M172.7,34.7v-1.4h1v-2.1h1.9v2.1h1.2v1.4h-1.2v3.9c0,0.3,0,0.5,0.1,0.6c0.1,0.1,0.3,0.1,0.7,0.1c0.1,0,0.1,0,0.2,0
			c0.1,0,0.1,0,0.2,0v1.5l-0.9,0c-0.9,0-1.5-0.1-1.9-0.5c-0.2-0.2-0.3-0.6-0.3-1v-4.6H172.7z"/>
		<path d="M182.6,35.9c0-0.3-0.1-0.5-0.3-0.8c-0.2-0.3-0.6-0.5-1-0.5c-0.7,0-1.1,0.3-1.4,1c-0.1,0.3-0.2,0.8-0.2,1.4
			c0,0.5,0.1,1,0.2,1.3c0.2,0.6,0.7,0.9,1.3,0.9c0.5,0,0.8-0.1,1-0.4c0.2-0.2,0.3-0.6,0.3-1h2c0,0.6-0.3,1.2-0.6,1.7
			c-0.6,0.9-1.5,1.3-2.7,1.3c-1.2,0-2.1-0.4-2.6-1.1c-0.6-0.7-0.8-1.6-0.8-2.8c0-1.3,0.3-2.3,0.9-3s1.5-1.1,2.6-1.1
			c0.9,0,1.7,0.2,2.3,0.6c0.6,0.4,0.9,1.2,1.1,2.2H182.6z"/>
		<path d="M191.3,33.3c0.4,0.2,0.7,0.4,0.9,0.7c0.2,0.3,0.3,0.6,0.4,0.9c0,0.3,0.1,0.8,0.1,1.4v4.4h-2v-4.5c0-0.4-0.1-0.7-0.2-1
			c-0.2-0.3-0.5-0.5-1-0.5c-0.5,0-0.9,0.2-1.2,0.5s-0.4,0.8-0.4,1.5v4h-1.9v-10h1.9v3.6c0.3-0.4,0.6-0.7,1-0.9
			c0.4-0.2,0.8-0.3,1.2-0.3C190.5,33,190.9,33.1,191.3,33.3z"/>
		<path d="M199.3,33.4c0.5,0.2,0.9,0.6,1.3,1.1c0.3,0.4,0.5,1,0.6,1.5c0.1,0.3,0.1,0.8,0.1,1.5h-5.4c0,0.7,0.3,1.3,0.8,1.6
			c0.3,0.2,0.7,0.3,1.1,0.3c0.4,0,0.8-0.1,1.1-0.3c0.2-0.1,0.3-0.3,0.4-0.5h2c-0.1,0.4-0.3,0.9-0.7,1.3c-0.7,0.7-1.6,1.1-2.8,1.1
			c-1,0-1.9-0.3-2.6-0.9s-1.1-1.6-1.1-3c0-1.3,0.3-2.3,1-3s1.6-1,2.7-1C198.2,33,198.8,33.2,199.3,33.4z M196.4,35.1
			c-0.3,0.3-0.4,0.7-0.5,1.2h3.4c0-0.5-0.2-0.9-0.5-1.2c-0.3-0.3-0.7-0.4-1.2-0.4C197.1,34.7,196.7,34.8,196.4,35.1z"/>
		<path d="M203.8,38.3c0,0.3,0.1,0.6,0.3,0.7c0.2,0.3,0.7,0.4,1.3,0.4c0.4,0,0.7-0.1,0.9-0.2s0.3-0.3,0.3-0.5c0-0.2-0.1-0.4-0.3-0.5
			s-0.9-0.3-2-0.6c-0.8-0.2-1.4-0.5-1.8-0.8c-0.3-0.3-0.5-0.8-0.5-1.3c0-0.7,0.3-1.3,0.8-1.8c0.5-0.5,1.3-0.7,2.3-0.7
			c0.9,0,1.7,0.2,2.3,0.6c0.6,0.4,0.9,1,1,1.9h-1.9c0-0.3-0.1-0.4-0.2-0.6c-0.2-0.3-0.6-0.4-1.1-0.4c-0.4,0-0.7,0.1-0.9,0.2
			s-0.3,0.3-0.3,0.5c0,0.2,0.1,0.4,0.3,0.5c0.2,0.1,0.9,0.3,2,0.5c0.8,0.2,1.4,0.5,1.7,0.8c0.4,0.4,0.6,0.8,0.6,1.4
			c0,0.7-0.3,1.3-0.8,1.8c-0.6,0.5-1.4,0.7-2.6,0.7c-1.2,0-2-0.2-2.6-0.7c-0.6-0.5-0.8-1.1-0.8-1.9H203.8z"/>
		<path d="M220.1,39.8c-0.6,0.8-1.6,1.2-2.9,1.2c-1.3,0-2.2-0.4-2.9-1.2s-0.9-1.7-0.9-2.8c0-1.1,0.3-2,0.9-2.8s1.6-1.2,2.9-1.2
			c1.3,0,2.2,0.4,2.9,1.2s0.9,1.7,0.9,2.8C221.1,38.1,220.8,39,220.1,39.8z M218.6,38.7c0.3-0.4,0.5-1,0.5-1.7
			c0-0.7-0.2-1.3-0.5-1.7c-0.3-0.4-0.7-0.6-1.3-0.6c-0.6,0-1,0.2-1.3,0.6c-0.3,0.4-0.5,1-0.5,1.7c0,0.7,0.2,1.3,0.5,1.7
			s0.7,0.6,1.3,0.6C217.8,39.3,218.3,39.1,218.6,38.7z"/>
		<path d="M228.5,33.7c0.5,0.4,0.7,1.1,0.7,2v5h-2v-4.5c0-0.4-0.1-0.7-0.2-0.9c-0.2-0.4-0.6-0.6-1.1-0.6c-0.7,0-1.1,0.3-1.4,0.8
			c-0.1,0.3-0.2,0.7-0.2,1.1v4h-1.9v-7.4h1.9v1.1c0.2-0.4,0.5-0.7,0.7-0.8c0.4-0.3,0.9-0.5,1.5-0.5C227.4,33.1,228,33.3,228.5,33.7z
			"/>
		<path d="M240.3,33.3c0.4,0.2,0.7,0.4,0.9,0.7c0.2,0.3,0.3,0.6,0.4,0.9c0,0.3,0.1,0.8,0.1,1.4v4.4h-2v-4.5c0-0.4-0.1-0.7-0.2-1
			c-0.2-0.3-0.5-0.5-1-0.5c-0.5,0-0.9,0.2-1.2,0.5s-0.4,0.8-0.4,1.5v4h-1.9v-10h1.9v3.6c0.3-0.4,0.6-0.7,1-0.9
			c0.4-0.2,0.8-0.3,1.2-0.3C239.5,33,239.9,33.1,240.3,33.3z"/>
		<path d="M245.5,32.4h-2v-1.8h2V32.4z M243.5,33.2h2v7.5h-2V33.2z"/>
		<path d="M248.9,38.3c0,0.3,0.1,0.6,0.3,0.7c0.2,0.3,0.7,0.4,1.3,0.4c0.4,0,0.7-0.1,0.9-0.2s0.3-0.3,0.3-0.5c0-0.2-0.1-0.4-0.3-0.5
			s-0.9-0.3-2-0.6c-0.8-0.2-1.4-0.5-1.8-0.8c-0.3-0.3-0.5-0.8-0.5-1.3c0-0.7,0.3-1.3,0.8-1.8c0.5-0.5,1.3-0.7,2.3-0.7
			c0.9,0,1.7,0.2,2.3,0.6c0.6,0.4,0.9,1,1,1.9h-1.9c0-0.3-0.1-0.4-0.2-0.6c-0.2-0.3-0.6-0.4-1.1-0.4c-0.4,0-0.7,0.1-0.9,0.2
			s-0.3,0.3-0.3,0.5c0,0.2,0.1,0.4,0.3,0.5c0.2,0.1,0.9,0.3,2,0.5c0.8,0.2,1.4,0.5,1.7,0.8c0.4,0.4,0.6,0.8,0.6,1.4
			c0,0.7-0.3,1.3-0.8,1.8c-0.6,0.5-1.4,0.7-2.6,0.7c-1.2,0-2-0.2-2.6-0.7c-0.6-0.5-0.8-1.1-0.8-1.9H248.9z"/>
		<path d="M258.3,34.7v-1.4h1v-2.1h1.9v2.1h1.2v1.4h-1.2v3.9c0,0.3,0,0.5,0.1,0.6c0.1,0.1,0.3,0.1,0.7,0.1c0.1,0,0.1,0,0.2,0
			c0.1,0,0.1,0,0.2,0v1.5l-0.9,0c-0.9,0-1.5-0.1-1.9-0.5c-0.2-0.2-0.3-0.6-0.3-1v-4.6H258.3z"/>
		<path d="M265.6,33.2v4.5c0,0.4,0,0.7,0.1,1c0.2,0.4,0.5,0.6,1,0.6c0.7,0,1.1-0.3,1.4-0.8c0.1-0.3,0.2-0.7,0.2-1.2v-4.1h2v7.5h-1.9
			v-1.1c0,0-0.1,0.1-0.1,0.2c-0.1,0.1-0.2,0.2-0.3,0.3c-0.3,0.3-0.6,0.5-0.9,0.6s-0.6,0.2-1,0.2c-1.1,0-1.8-0.4-2.2-1.2
			c-0.2-0.4-0.3-1.1-0.3-1.9v-4.5H265.6z"/>
		<path d="M281.5,33.3c0.3,0.1,0.6,0.4,0.9,0.7c0.2,0.3,0.4,0.6,0.4,1c0,0.3,0.1,0.6,0.1,1.1l0,4.7h-2V36c0-0.3,0-0.5-0.1-0.7
			c-0.2-0.3-0.5-0.5-1-0.5c-0.5,0-0.9,0.2-1.1,0.7c-0.1,0.2-0.2,0.5-0.2,0.9v4.4h-2v-4.4c0-0.4,0-0.8-0.1-1c-0.2-0.4-0.5-0.5-1-0.5
			c-0.6,0-0.9,0.2-1.1,0.5c-0.1,0.2-0.2,0.5-0.2,0.9v4.5h-2v-7.4h1.9v1.1c0.2-0.4,0.5-0.7,0.7-0.8c0.4-0.3,0.9-0.4,1.5-0.4
			c0.6,0,1,0.1,1.4,0.4c0.3,0.2,0.5,0.5,0.6,0.9c0.3-0.4,0.6-0.8,1-1c0.4-0.2,0.8-0.3,1.3-0.3C280.9,33.1,281.2,33.1,281.5,33.3z"/>
		<path d="M294,33.3c0.3,0.1,0.6,0.4,0.9,0.7c0.2,0.3,0.4,0.6,0.4,1c0,0.3,0.1,0.6,0.1,1.1l0,4.7h-2V36c0-0.3,0-0.5-0.1-0.7
			c-0.2-0.3-0.5-0.5-1-0.5c-0.5,0-0.9,0.2-1.1,0.7c-0.1,0.2-0.2,0.5-0.2,0.9v4.4h-2v-4.4c0-0.4,0-0.8-0.1-1c-0.2-0.4-0.5-0.5-1-0.5
			c-0.6,0-0.9,0.2-1.1,0.5c-0.1,0.2-0.2,0.5-0.2,0.9v4.5h-2v-7.4h1.9v1.1c0.2-0.4,0.5-0.7,0.7-0.8c0.4-0.3,0.9-0.4,1.5-0.4
			c0.6,0,1,0.1,1.4,0.4c0.3,0.2,0.5,0.5,0.6,0.9c0.3-0.4,0.6-0.8,1-1c0.4-0.2,0.8-0.3,1.3-0.3C293.3,33.1,293.7,33.1,294,33.3z"/>
		<path d="M297.4,42.1l0.2,0c0.2,0,0.4,0,0.5,0c0.2,0,0.3-0.1,0.4-0.2c0.1-0.1,0.2-0.2,0.3-0.5c0.1-0.2,0.1-0.4,0.1-0.5l-2.7-7.8
			h2.2l1.6,5.5l1.5-5.5h2.1l-2.6,7.3c-0.5,1.4-0.9,2.3-1.2,2.6c-0.3,0.3-0.9,0.5-1.7,0.5c-0.2,0-0.3,0-0.4,0c-0.1,0-0.3,0-0.5,0
			V42.1z"/>
		<path d="M311.9,30.5c0.1,0,0.2,0,0.4,0v1.6c-0.1,0-0.3,0-0.6,0c-0.3,0-0.4,0-0.5,0.2c-0.1,0.1-0.1,0.3-0.1,0.4s0,0.4,0,0.6h1.3
			v1.4h-1.3v6h-1.9v-6H308v-1.4h1.1v-0.5c0-0.8,0.1-1.3,0.4-1.6c0.3-0.4,1-0.7,2-0.7C311.7,30.5,311.8,30.5,311.9,30.5z"/>
		<path d="M317.6,33.1c0,0,0.1,0,0.2,0v2c-0.1,0-0.2,0-0.3,0s-0.2,0-0.2,0c-0.8,0-1.3,0.3-1.6,0.8c-0.2,0.3-0.2,0.7-0.2,1.3v3.6h-2
			v-7.5h1.9v1.3c0.3-0.5,0.6-0.8,0.8-1C316.5,33.2,316.9,33.1,317.6,33.1C317.6,33.1,317.6,33.1,317.6,33.1z"/>
		<path d="M325.1,39.8c-0.6,0.8-1.6,1.2-2.9,1.2c-1.3,0-2.2-0.4-2.9-1.2s-0.9-1.7-0.9-2.8c0-1.1,0.3-2,0.9-2.8s1.6-1.2,2.9-1.2
			c1.3,0,2.2,0.4,2.9,1.2s0.9,1.7,0.9,2.8C326.1,38.1,325.8,39,325.1,39.8z M323.6,38.7c0.3-0.4,0.5-1,0.5-1.7
			c0-0.7-0.2-1.3-0.5-1.7c-0.3-0.4-0.7-0.6-1.3-0.6c-0.6,0-1,0.2-1.3,0.6c-0.3,0.4-0.5,1-0.5,1.7c0,0.7,0.2,1.3,0.5,1.7
			s0.7,0.6,1.3,0.6C322.8,39.3,323.3,39.1,323.6,38.7z"/>
		<path d="M336.8,33.3c0.3,0.1,0.6,0.4,0.9,0.7c0.2,0.3,0.4,0.6,0.4,1c0,0.3,0.1,0.6,0.1,1.1l0,4.7h-2V36c0-0.3,0-0.5-0.1-0.7
			c-0.2-0.3-0.5-0.5-1-0.5c-0.5,0-0.9,0.2-1.1,0.7c-0.1,0.2-0.2,0.5-0.2,0.9v4.4h-2v-4.4c0-0.4,0-0.8-0.1-1c-0.2-0.4-0.5-0.5-1-0.5
			c-0.6,0-0.9,0.2-1.1,0.5c-0.1,0.2-0.2,0.5-0.2,0.9v4.5h-2v-7.4h1.9v1.1c0.2-0.4,0.5-0.7,0.7-0.8c0.4-0.3,0.9-0.4,1.5-0.4
			c0.6,0,1,0.1,1.4,0.4c0.3,0.2,0.5,0.5,0.6,0.9c0.3-0.4,0.6-0.8,1-1c0.4-0.2,0.8-0.3,1.3-0.3C336.1,33.1,336.5,33.1,336.8,33.3z"/>
		<path d="M348.7,33.4c0.5,0.2,0.9,0.6,1.3,1.1c0.3,0.4,0.5,1,0.6,1.5c0.1,0.3,0.1,0.8,0.1,1.5h-5.4c0,0.7,0.3,1.3,0.8,1.6
			c0.3,0.2,0.7,0.3,1.1,0.3c0.4,0,0.8-0.1,1.1-0.3c0.2-0.1,0.3-0.3,0.4-0.5h2c-0.1,0.4-0.3,0.9-0.7,1.3c-0.7,0.7-1.6,1.1-2.8,1.1
			c-1,0-1.9-0.3-2.6-0.9c-0.8-0.6-1.1-1.6-1.1-3c0-1.3,0.3-2.3,1-3s1.6-1,2.7-1C347.6,33,348.1,33.2,348.7,33.4z M345.8,35.1
			c-0.3,0.3-0.4,0.7-0.5,1.2h3.4c0-0.5-0.2-0.9-0.5-1.2c-0.3-0.3-0.7-0.4-1.2-0.4C346.4,34.7,346,34.8,345.8,35.1z"/>
		<path d="M354.5,36.2c0.4,0,0.6-0.1,0.8-0.2c0.3-0.1,0.4-0.3,0.4-0.6c0-0.3-0.1-0.5-0.3-0.6c-0.2-0.1-0.5-0.2-0.9-0.2
			c-0.5,0-0.8,0.1-1,0.3c-0.1,0.2-0.2,0.4-0.3,0.7h-1.9c0-0.7,0.2-1.2,0.5-1.6c0.5-0.7,1.4-1,2.7-1c0.8,0,1.5,0.2,2.2,0.5
			c0.6,0.3,1,0.9,1,1.8v3.4c0,0.2,0,0.5,0,0.9c0,0.3,0.1,0.4,0.1,0.5s0.2,0.2,0.3,0.2v0.3H356c-0.1-0.2-0.1-0.3-0.1-0.4
			s0-0.3-0.1-0.5c-0.3,0.3-0.6,0.5-0.9,0.7c-0.4,0.2-0.9,0.4-1.4,0.4c-0.7,0-1.2-0.2-1.7-0.6c-0.4-0.4-0.7-0.9-0.7-1.6
			c0-0.9,0.4-1.6,1.1-2c0.4-0.2,1-0.4,1.7-0.5L354.5,36.2z M355.7,37.1c-0.1,0.1-0.3,0.1-0.4,0.2c-0.1,0-0.3,0.1-0.5,0.1l-0.4,0.1
			c-0.4,0.1-0.7,0.2-0.9,0.3c-0.3,0.2-0.5,0.5-0.5,0.8c0,0.3,0.1,0.6,0.3,0.7c0.2,0.1,0.4,0.2,0.7,0.2c0.4,0,0.8-0.1,1.2-0.4
			c0.4-0.2,0.5-0.7,0.6-1.3V37.1z"/>
		<path d="M358.6,34.7v-1.4h1v-2.1h1.9v2.1h1.2v1.4h-1.2v3.9c0,0.3,0,0.5,0.1,0.6c0.1,0.1,0.3,0.1,0.7,0.1c0.1,0,0.1,0,0.2,0
			c0.1,0,0.1,0,0.2,0v1.5l-0.9,0c-0.9,0-1.5-0.1-1.9-0.5c-0.2-0.2-0.3-0.6-0.3-1v-4.6H358.6z"/>
		<path d="M366,32.4h-2v-1.8h2V32.4z M364.1,33.2h2v7.5h-2V33.2z"/>
		<path d="M373.9,33.7c0.5,0.4,0.7,1.1,0.7,2v5h-2v-4.5c0-0.4-0.1-0.7-0.2-0.9c-0.2-0.4-0.6-0.6-1.1-0.6c-0.7,0-1.1,0.3-1.3,0.8
			c-0.1,0.3-0.2,0.7-0.2,1.1v4h-1.9v-7.4h1.9v1.1c0.2-0.4,0.5-0.7,0.7-0.8c0.4-0.3,0.9-0.5,1.5-0.5
			C372.8,33.1,373.5,33.3,373.9,33.7z"/>
		<path d="M380.2,33.2c0.5,0.2,0.9,0.6,1.1,1.1v-1.1h1.9v7.1c0,1-0.2,1.7-0.5,2.2c-0.6,0.8-1.6,1.3-3.2,1.3c-1,0-1.7-0.2-2.3-0.6
			s-0.9-0.9-1-1.7h2.1c0.1,0.2,0.1,0.4,0.3,0.5c0.2,0.2,0.6,0.3,1.1,0.3c0.7,0,1.2-0.2,1.4-0.7c0.2-0.3,0.2-0.8,0.2-1.5v-0.5
			c-0.2,0.3-0.4,0.6-0.6,0.7c-0.4,0.3-0.9,0.4-1.5,0.4c-1,0-1.7-0.3-2.3-1c-0.6-0.7-0.9-1.6-0.9-2.7c0-1.1,0.3-2,0.8-2.8
			c0.6-0.8,1.3-1.1,2.3-1.1C379.6,33.1,379.9,33.1,380.2,33.2z M380.8,38.6c0.3-0.3,0.5-0.9,0.5-1.6c0-0.7-0.1-1.2-0.4-1.6
			c-0.3-0.4-0.7-0.6-1.2-0.6c-0.7,0-1.2,0.3-1.4,1c-0.1,0.3-0.2,0.8-0.2,1.3c0,0.4,0.1,0.8,0.2,1.2c0.3,0.6,0.7,0.9,1.4,0.9
			C380.1,39.1,380.5,38.9,380.8,38.6z"/>
		<path d="M388.2,34.7v-1.4h1v-2.1h1.9v2.1h1.2v1.4h-1.2v3.9c0,0.3,0,0.5,0.1,0.6c0.1,0.1,0.3,0.1,0.7,0.1c0.1,0,0.1,0,0.2,0
			c0.1,0,0.1,0,0.2,0v1.5l-0.9,0c-0.9,0-1.5-0.1-1.9-0.5c-0.2-0.2-0.3-0.6-0.3-1v-4.6H388.2z"/>
		<path d="M399.8,39.8c-0.6,0.8-1.6,1.2-2.9,1.2s-2.2-0.4-2.9-1.2s-0.9-1.7-0.9-2.8c0-1.1,0.3-2,0.9-2.8s1.6-1.2,2.9-1.2
			s2.2,0.4,2.9,1.2s0.9,1.7,0.9,2.8C400.7,38.1,400.4,39,399.8,39.8z M398.2,38.7c0.3-0.4,0.5-1,0.5-1.7c0-0.7-0.2-1.3-0.5-1.7
			c-0.3-0.4-0.7-0.6-1.3-0.6s-1,0.2-1.3,0.6c-0.3,0.4-0.5,1-0.5,1.7c0,0.7,0.2,1.3,0.5,1.7c0.3,0.4,0.7,0.6,1.3,0.6
			S397.9,39.1,398.2,38.7z"/>
		<path d="M408.4,39.8c-0.6,0.8-1.6,1.2-2.9,1.2s-2.2-0.4-2.9-1.2s-0.9-1.7-0.9-2.8c0-1.1,0.3-2,0.9-2.8s1.6-1.2,2.9-1.2
			s2.2,0.4,2.9,1.2s0.9,1.7,0.9,2.8C409.3,38.1,409,39,408.4,39.8z M406.8,38.7c0.3-0.4,0.5-1,0.5-1.7c0-0.7-0.2-1.3-0.5-1.7
			c-0.3-0.4-0.7-0.6-1.3-0.6s-1,0.2-1.3,0.6c-0.3,0.4-0.5,1-0.5,1.7c0,0.7,0.2,1.3,0.5,1.7c0.3,0.4,0.7,0.6,1.3,0.6
			S406.5,39.1,406.8,38.7z"/>
		<path d="M423.9,33.3c0.3,0.1,0.6,0.4,0.9,0.7c0.2,0.3,0.4,0.6,0.4,1c0,0.3,0.1,0.6,0.1,1.1l0,4.7h-2V36c0-0.3,0-0.5-0.1-0.7
			c-0.2-0.3-0.5-0.5-1-0.5c-0.5,0-0.9,0.2-1.1,0.7c-0.1,0.2-0.2,0.5-0.2,0.9v4.4h-2v-4.4c0-0.4,0-0.8-0.1-1c-0.2-0.4-0.5-0.5-1-0.5
			c-0.6,0-0.9,0.2-1.1,0.5c-0.1,0.2-0.2,0.5-0.2,0.9v4.5h-2v-7.4h1.9v1.1c0.2-0.4,0.5-0.7,0.7-0.8c0.4-0.3,0.9-0.4,1.5-0.4
			c0.6,0,1,0.1,1.4,0.4c0.3,0.2,0.5,0.5,0.6,0.9c0.3-0.4,0.6-0.8,1-1c0.4-0.2,0.8-0.3,1.3-0.3C423.2,33.1,423.6,33.1,423.9,33.3z"/>
		<path d="M430,36.2c0.4,0,0.6-0.1,0.8-0.2c0.3-0.1,0.4-0.3,0.4-0.6c0-0.3-0.1-0.5-0.3-0.6c-0.2-0.1-0.5-0.2-0.9-0.2
			c-0.5,0-0.8,0.1-1,0.3c-0.1,0.2-0.2,0.4-0.3,0.7h-1.9c0-0.7,0.2-1.2,0.5-1.6c0.5-0.7,1.4-1,2.7-1c0.8,0,1.5,0.2,2.2,0.5
			c0.6,0.3,1,0.9,1,1.8v3.4c0,0.2,0,0.5,0,0.9c0,0.3,0.1,0.4,0.1,0.5s0.2,0.2,0.3,0.2v0.3h-2.1c-0.1-0.2-0.1-0.3-0.1-0.4
			s0-0.3-0.1-0.5c-0.3,0.3-0.6,0.5-0.9,0.7c-0.4,0.2-0.9,0.4-1.4,0.4c-0.7,0-1.2-0.2-1.7-0.6c-0.4-0.4-0.7-0.9-0.7-1.6
			c0-0.9,0.4-1.6,1.1-2c0.4-0.2,1-0.4,1.7-0.5L430,36.2z M431.2,37.1c-0.1,0.1-0.3,0.1-0.4,0.2c-0.1,0-0.3,0.1-0.5,0.1l-0.4,0.1
			c-0.4,0.1-0.7,0.2-0.9,0.3c-0.3,0.2-0.5,0.5-0.5,0.8c0,0.3,0.1,0.6,0.3,0.7c0.2,0.1,0.4,0.2,0.7,0.2c0.4,0,0.8-0.1,1.2-0.4
			c0.4-0.2,0.5-0.7,0.6-1.3V37.1z"/>
		<path d="M440.8,33.7c0.5,0.4,0.7,1.1,0.7,2v5h-2v-4.5c0-0.4-0.1-0.7-0.2-0.9c-0.2-0.4-0.6-0.6-1.1-0.6c-0.7,0-1.1,0.3-1.3,0.8
			c-0.1,0.3-0.2,0.7-0.2,1.1v4h-1.9v-7.4h1.9v1.1c0.2-0.4,0.5-0.7,0.7-0.8c0.4-0.3,0.9-0.5,1.5-0.5
			C439.7,33.1,440.3,33.3,440.8,33.7z"/>
		<path d="M443.7,42.1l0.2,0c0.2,0,0.4,0,0.5,0s0.3-0.1,0.4-0.2c0.1-0.1,0.2-0.2,0.3-0.5c0.1-0.2,0.1-0.4,0.1-0.5l-2.7-7.8h2.2
			l1.6,5.5l1.5-5.5h2.1l-2.6,7.3c-0.5,1.4-0.9,2.3-1.2,2.6c-0.3,0.3-0.9,0.5-1.7,0.5c-0.2,0-0.3,0-0.4,0c-0.1,0-0.3,0-0.5,0V42.1z"
			/>
		<path d="M103.8,55.1c0,0.3,0.1,0.6,0.3,0.7c0.2,0.3,0.7,0.4,1.3,0.4c0.4,0,0.7-0.1,0.9-0.2s0.3-0.3,0.3-0.5c0-0.2-0.1-0.4-0.3-0.5
			s-0.9-0.3-2-0.6c-0.8-0.2-1.4-0.5-1.8-0.8c-0.3-0.3-0.5-0.8-0.5-1.3c0-0.7,0.3-1.3,0.8-1.8c0.5-0.5,1.3-0.7,2.3-0.7
			c0.9,0,1.7,0.2,2.3,0.6c0.6,0.4,0.9,1,1,1.9h-1.9c0-0.3-0.1-0.4-0.2-0.6c-0.2-0.3-0.6-0.4-1.1-0.4c-0.4,0-0.7,0.1-0.9,0.2
			c-0.2,0.1-0.3,0.3-0.3,0.5c0,0.2,0.1,0.4,0.3,0.5c0.2,0.1,0.9,0.3,2,0.5c0.8,0.2,1.4,0.5,1.7,0.8c0.4,0.4,0.6,0.8,0.6,1.4
			c0,0.7-0.3,1.3-0.8,1.8c-0.6,0.5-1.4,0.7-2.6,0.7c-1.2,0-2-0.2-2.6-0.7c-0.6-0.5-0.8-1.1-0.8-1.9H103.8z"/>
		<path d="M116.3,56.6c-0.6,0.8-1.6,1.2-2.9,1.2c-1.3,0-2.2-0.4-2.9-1.2s-0.9-1.7-0.9-2.8c0-1.1,0.3-2,0.9-2.8s1.6-1.2,2.9-1.2
			c1.3,0,2.2,0.4,2.9,1.2s0.9,1.7,0.9,2.8C117.2,54.9,116.9,55.8,116.3,56.6z M114.7,55.5c0.3-0.4,0.5-1,0.5-1.7
			c0-0.7-0.2-1.3-0.5-1.7c-0.3-0.4-0.7-0.6-1.3-0.6c-0.6,0-1,0.2-1.3,0.6c-0.3,0.4-0.5,1-0.5,1.7c0,0.7,0.2,1.3,0.5,1.7
			s0.7,0.6,1.3,0.6C114,56.1,114.4,55.9,114.7,55.5z"/>
		<path d="M123.1,52.7c0-0.3-0.1-0.5-0.3-0.8c-0.2-0.3-0.6-0.5-1-0.5c-0.7,0-1.1,0.3-1.3,1c-0.1,0.3-0.2,0.8-0.2,1.4
			c0,0.5,0.1,1,0.2,1.3c0.2,0.6,0.7,0.9,1.3,0.9c0.5,0,0.8-0.1,1-0.4c0.2-0.2,0.3-0.6,0.3-1h2c0,0.6-0.3,1.2-0.6,1.7
			c-0.6,0.9-1.5,1.3-2.7,1.3c-1.2,0-2.1-0.4-2.6-1.1s-0.8-1.6-0.8-2.8c0-1.3,0.3-2.3,0.9-3s1.5-1.1,2.6-1.1c0.9,0,1.7,0.2,2.3,0.6
			c0.6,0.4,0.9,1.2,1.1,2.2H123.1z"/>
		<path d="M126.4,47.5h1.9v5.4l2.5-2.8h2.4l-2.7,2.8l2.8,4.6h-2.4l-1.8-3.2l-0.8,0.8v2.3h-1.9V47.5z"/>
		<path d="M135.7,55.1c0,0.3,0.1,0.6,0.3,0.7c0.2,0.3,0.7,0.4,1.3,0.4c0.4,0,0.7-0.1,0.9-0.2s0.3-0.3,0.3-0.5c0-0.2-0.1-0.4-0.3-0.5
			s-0.9-0.3-2-0.6c-0.8-0.2-1.4-0.5-1.8-0.8c-0.3-0.3-0.5-0.8-0.5-1.3c0-0.7,0.3-1.3,0.8-1.8c0.5-0.5,1.3-0.7,2.3-0.7
			c0.9,0,1.7,0.2,2.3,0.6c0.6,0.4,0.9,1,1,1.9h-1.9c0-0.3-0.1-0.4-0.2-0.6c-0.2-0.3-0.6-0.4-1.1-0.4c-0.4,0-0.7,0.1-0.9,0.2
			c-0.2,0.1-0.3,0.3-0.3,0.5c0,0.2,0.1,0.4,0.3,0.5c0.2,0.1,0.9,0.3,2,0.5c0.8,0.2,1.4,0.5,1.7,0.8c0.4,0.4,0.6,0.8,0.6,1.4
			c0,0.7-0.3,1.3-0.8,1.8c-0.6,0.5-1.4,0.7-2.6,0.7c-1.2,0-2-0.2-2.6-0.7c-0.6-0.5-0.8-1.1-0.8-1.9H135.7z"/>
		<path d="M141.9,55.5h2.1v2h-2.1V55.5z"/>
		<path d="M157.2,47.4v1.8h-3v8.3h-2.1v-8.3h-3v-1.8H157.2z"/>
		<path d="M163.6,50.1c0.4,0.2,0.7,0.4,0.9,0.7c0.2,0.3,0.3,0.6,0.4,0.9c0,0.3,0.1,0.8,0.1,1.4v4.4h-2V53c0-0.4-0.1-0.7-0.2-1
			c-0.2-0.3-0.5-0.5-1-0.5c-0.5,0-0.9,0.2-1.2,0.5s-0.4,0.8-0.4,1.5v4h-1.9v-10h1.9V51c0.3-0.4,0.6-0.7,1-0.9
			c0.4-0.2,0.8-0.3,1.2-0.3C162.9,49.8,163.3,49.9,163.6,50.1z"/>
		<path d="M168.8,49.2h-2v-1.8h2V49.2z M166.9,50h2v7.5h-2V50z"/>
		<path d="M172.2,55.1c0,0.3,0.1,0.6,0.3,0.7c0.2,0.3,0.7,0.4,1.3,0.4c0.4,0,0.7-0.1,0.9-0.2s0.3-0.3,0.3-0.5c0-0.2-0.1-0.4-0.3-0.5
			s-0.9-0.3-2-0.6c-0.8-0.2-1.4-0.5-1.8-0.8c-0.3-0.3-0.5-0.8-0.5-1.3c0-0.7,0.3-1.3,0.8-1.8c0.5-0.5,1.3-0.7,2.3-0.7
			c0.9,0,1.7,0.2,2.3,0.6c0.6,0.4,0.9,1,1,1.9h-1.9c0-0.3-0.1-0.4-0.2-0.6c-0.2-0.3-0.6-0.4-1.1-0.4c-0.4,0-0.7,0.1-0.9,0.2
			c-0.2,0.1-0.3,0.3-0.3,0.5c0,0.2,0.1,0.4,0.3,0.5c0.2,0.1,0.9,0.3,2,0.5c0.8,0.2,1.4,0.5,1.7,0.8c0.4,0.4,0.6,0.8,0.6,1.4
			c0,0.7-0.3,1.3-0.8,1.8c-0.6,0.5-1.4,0.7-2.6,0.7c-1.2,0-2-0.2-2.6-0.7c-0.6-0.5-0.8-1.1-0.8-1.9H172.2z"/>
		<path d="M187.8,50.1c0.4,0.2,0.7,0.4,0.9,0.7c0.2,0.3,0.3,0.6,0.4,0.9c0,0.3,0.1,0.8,0.1,1.4v4.4h-2V53c0-0.4-0.1-0.7-0.2-1
			c-0.2-0.3-0.5-0.5-1-0.5c-0.5,0-0.9,0.2-1.2,0.5s-0.4,0.8-0.4,1.5v4h-1.9v-10h1.9V51c0.3-0.4,0.6-0.7,1-0.9
			c0.4-0.2,0.8-0.3,1.2-0.3C187,49.8,187.4,49.9,187.8,50.1z"/>
		<path d="M193.9,53c0.4,0,0.6-0.1,0.8-0.2c0.3-0.1,0.4-0.3,0.4-0.6c0-0.3-0.1-0.5-0.3-0.6c-0.2-0.1-0.5-0.2-0.9-0.2
			c-0.5,0-0.8,0.1-1,0.3c-0.1,0.2-0.2,0.4-0.3,0.7h-1.9c0-0.7,0.2-1.2,0.5-1.6c0.5-0.7,1.4-1,2.7-1c0.8,0,1.5,0.2,2.2,0.5
			c0.6,0.3,1,0.9,1,1.8v3.4c0,0.2,0,0.5,0,0.9c0,0.3,0.1,0.4,0.1,0.5c0.1,0.1,0.2,0.2,0.3,0.2v0.3h-2.1c-0.1-0.2-0.1-0.3-0.1-0.4
			c0-0.1,0-0.3-0.1-0.5c-0.3,0.3-0.6,0.5-0.9,0.7c-0.4,0.2-0.9,0.4-1.4,0.4c-0.7,0-1.2-0.2-1.7-0.6c-0.4-0.4-0.7-0.9-0.7-1.6
			c0-0.9,0.4-1.6,1.1-2c0.4-0.2,1-0.4,1.7-0.5L193.9,53z M195.1,53.9c-0.1,0.1-0.3,0.1-0.4,0.2c-0.1,0-0.3,0.1-0.5,0.1l-0.4,0.1
			c-0.4,0.1-0.7,0.2-0.9,0.3c-0.3,0.2-0.5,0.5-0.5,0.8c0,0.3,0.1,0.6,0.3,0.7c0.2,0.1,0.4,0.2,0.7,0.2c0.4,0,0.8-0.1,1.2-0.4
			s0.5-0.7,0.6-1.3V53.9z"/>
		<path d="M205,50.8c0.6,0.6,0.9,1.6,0.9,2.8c0,1.3-0.3,2.3-0.9,3s-1.4,1-2.3,1c-0.6,0-1.1-0.1-1.5-0.4c-0.2-0.2-0.4-0.4-0.6-0.7
			v3.9h-1.9V50h1.9v1.1c0.2-0.3,0.4-0.6,0.7-0.8c0.4-0.3,1-0.5,1.6-0.5C203.7,49.9,204.4,50.2,205,50.8z M203.5,52.2
			c-0.3-0.4-0.7-0.7-1.3-0.7c-0.7,0-1.2,0.3-1.5,1c-0.1,0.4-0.2,0.8-0.2,1.4c0,0.9,0.2,1.5,0.7,1.8c0.3,0.2,0.6,0.3,1,0.3
			c0.5,0,1-0.2,1.3-0.6s0.4-1,0.4-1.7C203.9,53.2,203.8,52.7,203.5,52.2z"/>
		<path d="M213.6,50.8c0.6,0.6,0.9,1.6,0.9,2.8c0,1.3-0.3,2.3-0.9,3s-1.4,1-2.3,1c-0.6,0-1.1-0.1-1.5-0.4c-0.2-0.2-0.4-0.4-0.6-0.7
			v3.9h-1.9V50h1.9v1.1c0.2-0.3,0.4-0.6,0.7-0.8c0.4-0.3,1-0.5,1.6-0.5C212.2,49.9,213,50.2,213.6,50.8z M212.1,52.2
			c-0.3-0.4-0.7-0.7-1.3-0.7c-0.7,0-1.2,0.3-1.5,1c-0.1,0.4-0.2,0.8-0.2,1.4c0,0.9,0.2,1.5,0.7,1.8c0.3,0.2,0.6,0.3,1,0.3
			c0.5,0,1-0.2,1.3-0.6s0.4-1,0.4-1.7C212.5,53.2,212.3,52.7,212.1,52.2z"/>
		<path d="M220.7,50.2c0.5,0.2,0.9,0.6,1.3,1.1c0.3,0.4,0.5,1,0.6,1.5c0.1,0.3,0.1,0.8,0.1,1.5h-5.4c0,0.7,0.3,1.3,0.8,1.6
			c0.3,0.2,0.7,0.3,1.1,0.3c0.4,0,0.8-0.1,1.1-0.3c0.2-0.1,0.3-0.3,0.4-0.5h2c-0.1,0.4-0.3,0.9-0.7,1.3c-0.7,0.7-1.6,1.1-2.8,1.1
			c-1,0-1.9-0.3-2.6-0.9c-0.8-0.6-1.1-1.6-1.1-3c0-1.3,0.3-2.3,1-3c0.7-0.7,1.6-1,2.7-1C219.6,49.8,220.2,50,220.7,50.2z
			 M217.8,51.9c-0.3,0.3-0.4,0.7-0.5,1.2h3.4c0-0.5-0.2-0.9-0.5-1.2c-0.3-0.3-0.7-0.4-1.2-0.4C218.5,51.5,218.1,51.6,217.8,51.9z"/>
		<path d="M229.6,50.5c0.5,0.4,0.7,1.1,0.7,2v5h-2V53c0-0.4-0.1-0.7-0.2-0.9c-0.2-0.4-0.6-0.6-1.1-0.6c-0.7,0-1.1,0.3-1.4,0.8
			c-0.1,0.3-0.2,0.7-0.2,1.1v4h-1.9v-7.4h1.9v1.1c0.2-0.4,0.5-0.7,0.7-0.8c0.4-0.3,0.9-0.5,1.5-0.5
			C228.5,49.9,229.2,50.1,229.6,50.5z"/>
		<path d="M237,50.2c0.5,0.2,0.9,0.6,1.3,1.1c0.3,0.4,0.5,1,0.6,1.5c0.1,0.3,0.1,0.8,0.1,1.5h-5.4c0,0.7,0.3,1.3,0.8,1.6
			c0.3,0.2,0.7,0.3,1.1,0.3c0.4,0,0.8-0.1,1.1-0.3c0.2-0.1,0.3-0.3,0.4-0.5h2c-0.1,0.4-0.3,0.9-0.7,1.3c-0.7,0.7-1.6,1.1-2.8,1.1
			c-1,0-1.9-0.3-2.6-0.9c-0.8-0.6-1.1-1.6-1.1-3c0-1.3,0.3-2.3,1-3c0.7-0.7,1.6-1,2.7-1C235.9,49.8,236.5,50,237,50.2z M234.1,51.9
			c-0.3,0.3-0.4,0.7-0.5,1.2h3.4c0-0.5-0.2-0.9-0.5-1.2c-0.3-0.3-0.7-0.4-1.2-0.4C234.8,51.5,234.4,51.6,234.1,51.9z"/>
		<path d="M243.9,50.2c0.4,0.2,0.6,0.5,0.9,0.8v-3.6h2v10.1h-1.9v-1c-0.3,0.4-0.6,0.8-1,1s-0.8,0.3-1.3,0.3c-0.9,0-1.6-0.4-2.2-1.1
			c-0.6-0.7-0.9-1.6-0.9-2.7c0-1.3,0.3-2.3,0.9-3c0.6-0.7,1.4-1.1,2.3-1.1C243.2,49.9,243.6,50,243.9,50.2z M244.4,55.5
			c0.3-0.4,0.4-0.9,0.4-1.6c0-0.9-0.2-1.6-0.7-2c-0.3-0.2-0.6-0.4-1-0.4c-0.6,0-1,0.2-1.3,0.6c-0.3,0.4-0.4,1-0.4,1.6
			c0,0.7,0.1,1.2,0.4,1.7c0.3,0.4,0.7,0.6,1.2,0.6C243.7,56.1,244.1,55.9,244.4,55.5z"/>
		<path d="M258.8,50.9c0.6,0.7,0.8,1.6,0.8,2.7c0,1.2-0.3,2.1-0.8,2.9s-1.3,1.1-2.3,1.1c-0.6,0-1.1-0.1-1.5-0.4
			c-0.2-0.1-0.5-0.4-0.7-0.8v0.9h-1.9V47.4h1.9V51c0.2-0.3,0.5-0.6,0.8-0.8c0.4-0.2,0.8-0.3,1.3-0.3
			C257.4,49.9,258.2,50.2,258.8,50.9z M257.1,55.5c0.3-0.4,0.4-0.9,0.4-1.6c0-0.5-0.1-1-0.2-1.3c-0.3-0.7-0.7-1-1.4-1
			c-0.7,0-1.2,0.3-1.5,1c-0.1,0.3-0.2,0.8-0.2,1.3c0,0.6,0.1,1.2,0.4,1.6s0.7,0.6,1.3,0.6C256.5,56.1,256.9,55.9,257.1,55.5z"/>
		<path d="M265.8,50.2c0.5,0.2,0.9,0.6,1.3,1.1c0.3,0.4,0.5,1,0.6,1.5c0.1,0.3,0.1,0.8,0.1,1.5h-5.4c0,0.7,0.3,1.3,0.8,1.6
			c0.3,0.2,0.7,0.3,1.1,0.3c0.4,0,0.8-0.1,1.1-0.3c0.2-0.1,0.3-0.3,0.4-0.5h2c-0.1,0.4-0.3,0.9-0.7,1.3c-0.7,0.7-1.6,1.1-2.8,1.1
			c-1,0-1.9-0.3-2.6-0.9c-0.8-0.6-1.1-1.6-1.1-3c0-1.3,0.3-2.3,1-3c0.7-0.7,1.6-1,2.7-1C264.7,49.8,265.3,50,265.8,50.2z
			 M262.9,51.9c-0.3,0.3-0.4,0.7-0.5,1.2h3.4c0-0.5-0.2-0.9-0.5-1.2c-0.3-0.3-0.7-0.4-1.2-0.4C263.6,51.5,263.2,51.6,262.9,51.9z"/>
		<path d="M271.8,47.3c0.1,0,0.2,0,0.4,0v1.6c-0.1,0-0.3,0-0.5,0c-0.3,0-0.4,0-0.5,0.2c-0.1,0.1-0.1,0.3-0.1,0.4s0,0.4,0,0.6h1.3
			v1.4H271v6h-1.9v-6H268v-1.4h1.1v-0.5c0-0.8,0.1-1.3,0.4-1.6c0.3-0.4,1-0.7,2-0.7C271.6,47.3,271.7,47.3,271.8,47.3z"/>
		<path d="M279.6,56.6c-0.6,0.8-1.6,1.2-2.9,1.2c-1.3,0-2.2-0.4-2.9-1.2s-0.9-1.7-0.9-2.8c0-1.1,0.3-2,0.9-2.8s1.6-1.2,2.9-1.2
			c1.3,0,2.2,0.4,2.9,1.2s0.9,1.7,0.9,2.8C280.6,54.9,280.3,55.8,279.6,56.6z M278.1,55.5c0.3-0.4,0.5-1,0.5-1.7
			c0-0.7-0.2-1.3-0.5-1.7c-0.3-0.4-0.7-0.6-1.3-0.6c-0.6,0-1,0.2-1.3,0.6c-0.3,0.4-0.5,1-0.5,1.7c0,0.7,0.2,1.3,0.5,1.7
			s0.7,0.6,1.3,0.6C277.3,56.1,277.8,55.9,278.1,55.5z"/>
		<path d="M286.1,49.9c0,0,0.1,0,0.2,0v2c-0.1,0-0.2,0-0.3,0s-0.2,0-0.2,0c-0.8,0-1.3,0.3-1.6,0.8c-0.2,0.3-0.2,0.7-0.2,1.3v3.6h-2
			V50h1.9v1.3c0.3-0.5,0.6-0.8,0.8-1C285,50,285.4,49.9,286.1,49.9C286,49.9,286.1,49.9,286.1,49.9z"/>
		<path d="M292.3,50.2c0.5,0.2,0.9,0.6,1.3,1.1c0.3,0.4,0.5,1,0.6,1.5c0.1,0.3,0.1,0.8,0.1,1.5h-5.4c0,0.7,0.3,1.3,0.8,1.6
			c0.3,0.2,0.7,0.3,1.1,0.3c0.4,0,0.8-0.1,1.1-0.3c0.2-0.1,0.3-0.3,0.4-0.5h2c-0.1,0.4-0.3,0.9-0.7,1.3c-0.7,0.7-1.6,1.1-2.8,1.1
			c-1,0-1.9-0.3-2.6-0.9c-0.8-0.6-1.1-1.6-1.1-3c0-1.3,0.3-2.3,1-3c0.7-0.7,1.6-1,2.7-1C291.2,49.8,291.7,50,292.3,50.2z
			 M289.4,51.9c-0.3,0.3-0.4,0.7-0.5,1.2h3.4c0-0.5-0.2-0.9-0.5-1.2c-0.3-0.3-0.7-0.4-1.2-0.4C290,51.5,289.6,51.6,289.4,51.9z"/>
		<path d="M302.6,50h2l1.1,5.4l1.2-5.4h2l-2.2,7.5h-2l-1.2-5.4l-1.2,5.4h-2l-2.1-7.5h2.1l1.2,5.3L302.6,50z"/>
		<path d="M314.8,50.2c0.5,0.2,0.9,0.6,1.3,1.1c0.3,0.4,0.5,1,0.6,1.5c0.1,0.3,0.1,0.8,0.1,1.5h-5.4c0,0.7,0.3,1.3,0.8,1.6
			c0.3,0.2,0.7,0.3,1.1,0.3c0.4,0,0.8-0.1,1.1-0.3c0.2-0.1,0.3-0.3,0.4-0.5h2c-0.1,0.4-0.3,0.9-0.7,1.3c-0.7,0.7-1.6,1.1-2.8,1.1
			c-1,0-1.9-0.3-2.6-0.9c-0.8-0.6-1.1-1.6-1.1-3c0-1.3,0.3-2.3,1-3c0.7-0.7,1.6-1,2.7-1C313.7,49.8,314.3,50,314.8,50.2z
			 M311.9,51.9c-0.3,0.3-0.4,0.7-0.5,1.2h3.4c0-0.5-0.2-0.9-0.5-1.2c-0.3-0.3-0.7-0.4-1.2-0.4C312.6,51.5,312.2,51.6,311.9,51.9z"/>
		<path d="M324.6,53c0.4,0,0.6-0.1,0.8-0.2c0.3-0.1,0.4-0.3,0.4-0.6c0-0.3-0.1-0.5-0.3-0.6c-0.2-0.1-0.5-0.2-0.9-0.2
			c-0.5,0-0.8,0.1-1,0.3c-0.1,0.2-0.2,0.4-0.3,0.7h-1.9c0-0.7,0.2-1.2,0.5-1.6c0.5-0.7,1.4-1,2.7-1c0.8,0,1.5,0.2,2.2,0.5
			c0.6,0.3,1,0.9,1,1.8v3.4c0,0.2,0,0.5,0,0.9c0,0.3,0.1,0.4,0.1,0.5c0.1,0.1,0.2,0.2,0.3,0.2v0.3H326c-0.1-0.2-0.1-0.3-0.1-0.4
			c0-0.1,0-0.3-0.1-0.5c-0.3,0.3-0.6,0.5-0.9,0.7c-0.4,0.2-0.9,0.4-1.4,0.4c-0.7,0-1.2-0.2-1.7-0.6c-0.4-0.4-0.7-0.9-0.7-1.6
			c0-0.9,0.4-1.6,1.1-2c0.4-0.2,1-0.4,1.7-0.5L324.6,53z M325.8,53.9c-0.1,0.1-0.3,0.1-0.4,0.2c-0.1,0-0.3,0.1-0.5,0.1l-0.4,0.1
			c-0.4,0.1-0.7,0.2-0.9,0.3c-0.3,0.2-0.5,0.5-0.5,0.8c0,0.3,0.1,0.6,0.3,0.7c0.2,0.1,0.4,0.2,0.7,0.2c0.4,0,0.8-0.1,1.2-0.4
			s0.5-0.7,0.6-1.3V53.9z"/>
		<path d="M333.4,50.2c0.4,0.2,0.6,0.5,0.9,0.8v-3.6h2v10.1h-1.9v-1c-0.3,0.4-0.6,0.8-1,1s-0.8,0.3-1.3,0.3c-0.9,0-1.6-0.4-2.2-1.1
			c-0.6-0.7-0.9-1.6-0.9-2.7c0-1.3,0.3-2.3,0.9-3c0.6-0.7,1.4-1.1,2.3-1.1C332.6,49.9,333,50,333.4,50.2z M333.9,55.5
			c0.3-0.4,0.4-0.9,0.4-1.6c0-0.9-0.2-1.6-0.7-2c-0.3-0.2-0.6-0.4-1-0.4c-0.6,0-1,0.2-1.3,0.6c-0.3,0.4-0.4,1-0.4,1.6
			c0,0.7,0.1,1.2,0.4,1.7c0.3,0.4,0.7,0.6,1.2,0.6C333.2,56.1,333.6,55.9,333.9,55.5z"/>
		<path d="M344.2,56.6c-0.6,0.8-1.6,1.2-2.9,1.2s-2.2-0.4-2.9-1.2s-0.9-1.7-0.9-2.8c0-1.1,0.3-2,0.9-2.8s1.6-1.2,2.9-1.2
			s2.2,0.4,2.9,1.2s0.9,1.7,0.9,2.8C345.1,54.9,344.8,55.8,344.2,56.6z M342.6,55.5c0.3-0.4,0.5-1,0.5-1.7c0-0.7-0.2-1.3-0.5-1.7
			c-0.3-0.4-0.7-0.6-1.3-0.6c-0.6,0-1,0.2-1.3,0.6c-0.3,0.4-0.5,1-0.5,1.7c0,0.7,0.2,1.3,0.5,1.7s0.7,0.6,1.3,0.6
			C341.9,56.1,342.3,55.9,342.6,55.5z"/>
		<path d="M352.8,50.8c0.6,0.6,0.9,1.6,0.9,2.8c0,1.3-0.3,2.3-0.9,3c-0.6,0.7-1.4,1-2.3,1c-0.6,0-1.1-0.1-1.5-0.4
			c-0.2-0.2-0.4-0.4-0.6-0.7v3.9h-1.9V50h1.9v1.1c0.2-0.3,0.4-0.6,0.7-0.8c0.4-0.3,1-0.5,1.6-0.5C351.5,49.9,352.2,50.2,352.8,50.8z
			 M351.3,52.2c-0.3-0.4-0.7-0.7-1.3-0.7c-0.7,0-1.2,0.3-1.5,1c-0.1,0.4-0.2,0.8-0.2,1.4c0,0.9,0.2,1.5,0.7,1.8
			c0.3,0.2,0.6,0.3,1,0.3c0.5,0,1-0.2,1.3-0.6s0.4-1,0.4-1.7C351.7,53.2,351.6,52.7,351.3,52.2z"/>
		<path d="M354.3,51.5v-1.4h1V48h1.9v2.1h1.2v1.4h-1.2v3.9c0,0.3,0,0.5,0.1,0.6c0.1,0.1,0.3,0.1,0.7,0.1c0.1,0,0.1,0,0.2,0
			c0.1,0,0.1,0,0.2,0v1.5l-0.9,0c-0.9,0-1.5-0.1-1.9-0.5c-0.2-0.2-0.3-0.6-0.3-1v-4.6H354.3z"/>
		<path d="M364.6,50.2c0.5,0.2,0.9,0.6,1.3,1.1c0.3,0.4,0.5,1,0.6,1.5c0.1,0.3,0.1,0.8,0.1,1.5h-5.4c0,0.7,0.3,1.3,0.8,1.6
			c0.3,0.2,0.7,0.3,1.1,0.3c0.4,0,0.8-0.1,1.1-0.3c0.2-0.1,0.3-0.3,0.4-0.5h2c-0.1,0.4-0.3,0.9-0.7,1.3c-0.7,0.7-1.6,1.1-2.8,1.1
			c-1,0-1.9-0.3-2.6-0.9c-0.8-0.6-1.1-1.6-1.1-3c0-1.3,0.3-2.3,1-3s1.6-1,2.7-1C363.5,49.8,364.1,50,364.6,50.2z M361.7,51.9
			c-0.3,0.3-0.4,0.7-0.5,1.2h3.4c0-0.5-0.2-0.9-0.5-1.2c-0.3-0.3-0.7-0.4-1.2-0.4C362.4,51.5,362,51.6,361.7,51.9z"/>
		<path d="M371.5,50.2c0.4,0.2,0.6,0.5,0.9,0.8v-3.6h2v10.1h-1.9v-1c-0.3,0.4-0.6,0.8-1,1s-0.8,0.3-1.3,0.3c-0.9,0-1.6-0.4-2.2-1.1
			c-0.6-0.7-0.9-1.6-0.9-2.7c0-1.3,0.3-2.3,0.9-3c0.6-0.7,1.4-1.1,2.3-1.1C370.7,49.9,371.1,50,371.5,50.2z M372,55.5
			c0.3-0.4,0.4-0.9,0.4-1.6c0-0.9-0.2-1.6-0.7-2c-0.3-0.2-0.6-0.4-1-0.4c-0.6,0-1,0.2-1.3,0.6c-0.3,0.4-0.4,1-0.4,1.6
			c0,0.7,0.1,1.2,0.4,1.7c0.3,0.4,0.7,0.6,1.2,0.6S371.7,55.9,372,55.5z"/>
		<path d="M385.3,50.1c0.4,0.2,0.7,0.4,0.9,0.7c0.2,0.3,0.3,0.6,0.4,0.9c0,0.3,0.1,0.8,0.1,1.4v4.4h-2V53c0-0.4-0.1-0.7-0.2-1
			c-0.2-0.3-0.5-0.5-1-0.5c-0.5,0-0.9,0.2-1.2,0.5s-0.4,0.8-0.4,1.5v4H380v-10h1.9V51c0.3-0.4,0.6-0.7,1-0.9
			c0.4-0.2,0.8-0.3,1.2-0.3C384.5,49.8,385,49.9,385.3,50.1z"/>
		<path d="M390.5,49.2h-2v-1.8h2V49.2z M388.6,50h2v7.5h-2V50z"/>
		<path d="M401.7,50.1c0.3,0.1,0.6,0.4,0.9,0.7c0.2,0.3,0.4,0.6,0.4,1c0,0.3,0.1,0.6,0.1,1.1l0,4.7h-2v-4.7c0-0.3,0-0.5-0.1-0.7
			c-0.2-0.3-0.5-0.5-1-0.5c-0.5,0-0.9,0.2-1.1,0.7c-0.1,0.2-0.2,0.5-0.2,0.9v4.4h-2v-4.4c0-0.4,0-0.8-0.1-1c-0.2-0.4-0.5-0.5-1-0.5
			c-0.6,0-0.9,0.2-1.1,0.5c-0.1,0.2-0.2,0.5-0.2,0.9v4.5h-2v-7.4h1.9v1.1c0.2-0.4,0.5-0.7,0.7-0.8c0.4-0.3,0.9-0.4,1.5-0.4
			c0.6,0,1,0.1,1.4,0.4c0.3,0.2,0.5,0.5,0.6,0.9c0.3-0.4,0.6-0.8,1-1c0.4-0.2,0.8-0.3,1.3-0.3C401.1,49.9,401.4,49.9,401.7,50.1z"/>
		<path d="M404.8,55.5h2.1v2h-2.1V55.5z"/>
	</g>
	<g id="next_1_">
		<path id="next-tummy-2" style="fill:#FF5700;" d="M461.3,385.7c-1.6,0-3-1.3-3-2.9v-2.2l-11.1,1.4h-0.1c-2.5,0-4.5-2-4.5-4.5
			v-16.3c0-2.5,2-4.5,4.5-4.5h0.1l11.1,1.4v-2.4c0-1.6,1.3-2.9,3-2.9c0.8,0,1.6,0.3,2.1,0.9l12.2,13.1c1,1.1,1.1,2.8,0.1,3.9
			l-12.2,14C462.9,385.4,462.1,385.7,461.3,385.7L461.3,385.7z"/>
		<path style="fill:#FFFFFF;" d="M461.3,354.3c0.4,0,0.7,0.1,1,0.5l12.2,13.1c0.5,0.5,0.5,1.4,0,1.9l-12.2,14
			c-0.3,0.3-0.7,0.5-1.1,0.5c-0.7,0-1.5-0.6-1.5-1.4V379l-12.7,1.6c-1.7,0-3-1.3-3-3v-16.3c0-1.7,1.3-3,3-3l12.7,1.6v-4.1
			C459.8,354.9,460.5,354.3,461.3,354.3 M461.3,351.3c-2.5,0-4.5,2-4.5,4.4v0.7l-9.3-1.2h-0.2h-0.2c-3.3,0-6,2.7-6,6v16.3
			c0,3.3,2.7,6,6,6h0.2h0.2l9.3-1.2v0.5c0,2.5,2,4.4,4.5,4.4c1.3,0,2.5-0.6,3.3-1.5l12.2-14c1.5-1.7,1.5-4.3-0.1-6l-12.2-13.1
			C463.6,351.8,462.5,351.3,461.3,351.3L461.3,351.3z"/>
	</g>
	<circle style="fill:#FF848F;" cx="137.1" cy="331.7" r="7.6"/>
	<circle style="fill:#FF848F;" cx="44.8" cy="369.3" r="7.6"/>
	<circle style="fill:#FF848F;" cx="29.4" cy="115.1" r="7.6"/>
	<circle style="fill:#FF848F;" cx="430" cy="297.8" r="7.6"/>
	<circle style="fill:#FF848F;" cx="271.3" cy="85.8" r="3.8"/>
	<circle style="fill:#FF848F;" cx="459.5" cy="312.1" r="3.8"/>
	<circle style="fill:#FF848F;" cx="161.2" cy="347.5" r="3.8"/>
	<circle style="fill:#FF848F;" cx="35.1" cy="19" r="3.8"/>
</g>
<g id="Layer_2">
</g>
</svg>
